<svg xmlns="http://www.w3.org/2000/svg" width="279.08" height="35" viewBox="0 0 279.08 35"><rect class="svg__rect" x="0" y="0" width="155.39000000000001" height="35" fill="#31C4F3"/><rect class="svg__rect" x="153.39000000000001" y="0" width="125.68999999999997" height="35" fill="#389AD5"/><path class="svg__text" d="M19.57 22L14.22 22L14.22 13.47L15.70 13.47L15.70 20.82L19.57 20.82L19.57 22ZM24.48 22L22.94 22L26.16 13.47L27.49 13.47L30.72 22L29.17 22L28.47 20.01L25.17 20.01L24.48 22ZM26.82 15.28L25.58 18.82L28.06 18.82L26.82 15.28ZM34.24 19.42L34.24 19.42L35.72 19.42Q35.72 20.15 36.20 20.55Q36.68 20.95 37.58 20.95L37.58 20.95Q38.35 20.95 38.74 20.63Q39.13 20.32 39.13 19.80L39.13 19.80Q39.13 19.24 38.74 18.94Q38.34 18.63 37.31 18.32Q36.28 18.01 35.67 17.63L35.67 17.63Q34.50 16.90 34.50 15.72L34.50 15.72Q34.50 14.69 35.34 14.02Q36.18 13.35 37.53 13.35L37.53 13.35Q38.42 13.35 39.11 13.68Q39.81 14.01 40.21 14.61Q40.61 15.22 40.61 15.96L40.61 15.96L39.13 15.96Q39.13 15.29 38.71 14.91Q38.29 14.54 37.51 14.54L37.51 14.54Q36.79 14.54 36.39 14.85Q35.98 15.16 35.98 15.71L35.98 15.71Q35.98 16.18 36.42 16.50Q36.85 16.81 37.85 17.10Q38.84 17.40 39.45 17.78Q40.05 18.16 40.33 18.65Q40.61 19.13 40.61 19.79L40.61 19.79Q40.61 20.86 39.80 21.49Q38.98 22.12 37.58 22.12L37.58 22.12Q36.65 22.12 35.88 21.77Q35.10 21.43 34.67 20.83Q34.24 20.22 34.24 19.42ZM46.58 14.66L43.95 14.66L43.95 13.47L50.72 13.47L50.72 14.66L48.06 14.66L48.06 22L46.58 22L46.58 14.66ZM66.03 22L60.45 22L60.45 13.47L65.98 13.47L65.98 14.66L61.93 14.66L61.93 17.02L65.43 17.02L65.43 18.19L61.93 18.19L61.93 20.82L66.03 20.82L66.03 22ZM72.68 22L70.22 22L70.22 13.47L72.74 13.47Q73.87 13.47 74.75 13.97Q75.62 14.48 76.10 15.40Q76.58 16.33 76.58 17.52L76.58 17.52L76.58 17.95Q76.58 19.16 76.10 20.08Q75.62 21.00 74.72 21.50Q73.83 22 72.68 22L72.68 22ZM71.70 14.66L71.70 20.82L72.67 20.82Q73.84 20.82 74.46 20.09Q75.08 19.36 75.10 17.99L75.10 17.99L75.10 17.52Q75.10 16.13 74.49 15.40Q73.89 14.66 72.74 14.66L72.74 14.66L71.70 14.66ZM82.61 22L81.14 22L81.14 13.47L82.61 13.47L82.61 22ZM89.11 14.66L86.47 14.66L86.47 13.47L93.24 13.47L93.24 14.66L90.58 14.66L90.58 22L89.11 22L89.11 14.66ZM102.57 22L96.99 22L96.99 13.47L102.53 13.47L102.53 14.66L98.47 14.66L98.47 17.02L101.98 17.02L101.98 18.19L98.47 18.19L98.47 20.82L102.57 20.82L102.57 22ZM109.22 22L106.77 22L106.77 13.47L109.29 13.47Q110.42 13.47 111.29 13.97Q112.17 14.48 112.65 15.40Q113.13 16.33 113.13 17.52L113.13 17.52L113.13 17.95Q113.13 19.16 112.65 20.08Q112.16 21.00 111.27 21.50Q110.38 22 109.22 22L109.22 22ZM108.25 14.66L108.25 20.82L109.22 20.82Q110.38 20.82 111.01 20.09Q111.63 19.36 111.64 17.99L111.64 17.99L111.64 17.52Q111.64 16.13 111.04 15.40Q110.43 14.66 109.29 14.66L109.29 14.66L108.25 14.66ZM123.30 18.00L123.30 18.00L123.30 17.52Q123.30 16.28 123.74 15.32Q124.19 14.37 124.99 13.86Q125.80 13.35 126.84 13.35Q127.88 13.35 128.69 13.85Q129.49 14.35 129.93 15.29Q130.37 16.23 130.38 17.48L130.38 17.48L130.38 17.96Q130.38 19.21 129.95 20.16Q129.51 21.10 128.71 21.61Q127.90 22.12 126.85 22.12L126.85 22.12Q125.81 22.12 125.00 21.61Q124.19 21.10 123.75 20.17Q123.31 19.23 123.30 18.00ZM124.78 17.46L124.78 17.96Q124.78 19.36 125.33 20.13Q125.88 20.90 126.85 20.90L126.85 20.90Q127.84 20.90 128.37 20.15Q128.90 19.40 128.90 17.96L128.90 17.96L128.90 17.51Q128.90 16.09 128.36 15.34Q127.82 14.58 126.84 14.58L126.84 14.58Q125.88 14.58 125.34 15.33Q124.80 16.09 124.78 17.46L124.78 17.46ZM136.33 22L134.84 22L134.84 13.47L136.33 13.47L140.14 19.54L140.14 13.47L141.61 13.47L141.61 22L140.13 22L136.33 15.95L136.33 22Z" fill="#FFFFFF"/><path class="svg__text" d="M167.15 17.80L167.15 17.80Q167.15 16.45 167.62 15.46Q168.09 14.46 168.93 13.95Q169.78 13.43 170.85 13.43L170.85 13.43Q171.92 13.43 172.76 13.95Q173.60 14.46 174.08 15.46Q174.55 16.45 174.55 17.80L174.55 17.80Q174.55 19.15 174.08 20.15Q173.60 21.14 172.76 21.65Q171.93 22.17 170.85 22.17L170.85 22.17Q169.78 22.17 168.93 21.65Q168.09 21.14 167.62 20.15Q167.15 19.16 167.15 17.80ZM169.53 17.80L169.53 17.80Q169.53 19.06 169.89 19.64Q170.24 20.22 170.85 20.22L170.85 20.22Q171.46 20.22 171.81 19.64Q172.17 19.06 172.17 17.80L172.17 17.80Q172.17 16.54 171.81 15.96Q171.46 15.38 170.85 15.38L170.85 15.38Q170.24 15.38 169.89 15.96Q169.53 16.54 169.53 17.80ZM180.08 15.44L178.51 15.44L178.51 13.60L182.45 13.60L182.45 22L180.08 22L180.08 15.44ZM188.37 23.20L186.34 23.20L190.30 11.90L192.33 11.90L188.37 23.20ZM195.66 17.80L195.66 17.80Q195.66 16.45 196.13 15.46Q196.60 14.46 197.44 13.95Q198.28 13.43 199.36 13.43L199.36 13.43Q200.43 13.43 201.27 13.95Q202.11 14.46 202.58 15.46Q203.06 16.45 203.06 17.80L203.06 17.80Q203.06 19.15 202.58 20.15Q202.11 21.14 201.27 21.65Q200.43 22.17 199.36 22.17L199.36 22.17Q198.28 22.17 197.44 21.65Q196.60 21.14 196.13 20.15Q195.66 19.16 195.66 17.80ZM198.04 17.80L198.04 17.80Q198.04 19.06 198.40 19.64Q198.75 20.22 199.36 20.22L199.36 20.22Q199.96 20.22 200.32 19.64Q200.67 19.06 200.67 17.80L200.67 17.80Q200.67 16.54 200.32 15.96Q199.96 15.38 199.36 15.38L199.36 15.38Q198.75 15.38 198.40 15.96Q198.04 16.54 198.04 17.80ZM207.30 19.53L207.30 19.53Q207.30 18.89 207.62 18.40Q207.93 17.91 208.51 17.57L208.51 17.57Q208.07 17.27 207.84 16.84Q207.61 16.41 207.61 15.88L207.61 15.88Q207.61 15.15 208.03 14.59Q208.45 14.03 209.21 13.73Q209.97 13.43 210.95 13.43L210.95 13.43Q211.94 13.43 212.70 13.73Q213.46 14.03 213.88 14.59Q214.30 15.15 214.30 15.88L214.30 15.88Q214.30 16.41 214.07 16.84Q213.84 17.27 213.40 17.57L213.40 17.57Q213.98 17.91 214.29 18.40Q214.61 18.89 214.61 19.53L214.61 19.53Q214.61 20.32 214.15 20.92Q213.69 21.52 212.86 21.84Q212.03 22.17 210.95 22.17L210.95 22.17Q209.88 22.17 209.05 21.84Q208.22 21.52 207.76 20.92Q207.30 20.32 207.30 19.53ZM209.70 19.46L209.70 19.46Q209.70 19.94 210.04 20.22Q210.38 20.50 210.95 20.50L210.95 20.50Q211.53 20.50 211.87 20.22Q212.21 19.94 212.21 19.46L212.21 19.46Q212.21 18.98 211.87 18.70Q211.53 18.41 210.95 18.41L210.95 18.41Q210.38 18.41 210.04 18.70Q209.70 18.98 209.70 19.46ZM209.96 15.99L209.96 15.99Q209.96 16.40 210.23 16.63Q210.50 16.86 210.95 16.86L210.95 16.86Q211.41 16.86 211.69 16.63Q211.96 16.40 211.96 15.99L211.96 15.99Q211.96 15.57 211.69 15.33Q211.41 15.10 210.95 15.10L210.95 15.10Q210.51 15.10 210.23 15.33Q209.96 15.57 209.96 15.99ZM220.04 23.20L218.02 23.20L221.98 11.90L224.00 11.90L220.04 23.20ZM228.62 16.17L226.85 15.19Q227.34 14.37 228.23 13.90Q229.12 13.43 230.33 13.43L230.33 13.43Q231.29 13.43 232.03 13.74Q232.76 14.05 233.18 14.64Q233.60 15.22 233.60 15.99L233.60 15.99Q233.60 16.67 233.30 17.28Q233.00 17.89 232.17 18.65L232.17 18.65L230.58 20.11L233.82 20.11L233.82 22L227.28 22L227.28 20.51L230.43 17.57Q230.88 17.14 231.04 16.83Q231.19 16.53 231.19 16.22L231.19 16.22Q231.19 15.81 230.92 15.58Q230.64 15.35 230.12 15.35L230.12 15.35Q229.65 15.35 229.26 15.56Q228.87 15.77 228.62 16.17L228.62 16.17ZM238.00 17.80L238.00 17.80Q238.00 16.45 238.47 15.46Q238.95 14.46 239.79 13.95Q240.63 13.43 241.70 13.43L241.70 13.43Q242.77 13.43 243.61 13.95Q244.45 14.46 244.93 15.46Q245.40 16.45 245.40 17.80L245.40 17.80Q245.40 19.15 244.93 20.15Q244.45 21.14 243.62 21.65Q242.78 22.17 241.70 22.17L241.70 22.17Q240.63 22.17 239.79 21.65Q238.95 21.14 238.47 20.15Q238.00 19.16 238.00 17.80ZM240.39 17.80L240.39 17.80Q240.39 19.06 240.74 19.64Q241.10 20.22 241.70 20.22L241.70 20.22Q242.31 20.22 242.66 19.64Q243.02 19.06 243.02 17.80L243.02 17.80Q243.02 16.54 242.66 15.96Q242.31 15.38 241.70 15.38L241.70 15.38Q241.10 15.38 240.74 15.96Q240.39 16.54 240.39 17.80ZM250.99 16.17L249.22 15.19Q249.71 14.37 250.60 13.90Q251.49 13.43 252.70 13.43L252.70 13.43Q253.66 13.43 254.40 13.74Q255.13 14.05 255.55 14.64Q255.97 15.22 255.97 15.99L255.97 15.99Q255.97 16.67 255.67 17.28Q255.37 17.89 254.54 18.65L254.54 18.65L252.95 20.11L256.20 20.11L256.20 22L249.65 22L249.65 20.51L252.80 17.57Q253.25 17.14 253.41 16.83Q253.56 16.53 253.56 16.22L253.56 16.22Q253.56 15.81 253.29 15.58Q253.01 15.35 252.49 15.35L252.49 15.35Q252.02 15.35 251.63 15.56Q251.24 15.77 250.99 16.17L250.99 16.17ZM259.92 21.34L259.92 21.34L260.78 19.55Q261.27 19.88 261.89 20.07Q262.51 20.25 263.11 20.25L263.11 20.25Q263.72 20.25 264.08 20.02Q264.44 19.79 264.44 19.37L264.44 19.37Q264.44 18.55 263.16 18.55L263.16 18.55L262.16 18.55L262.16 17.05L263.66 15.44L260.35 15.44L260.35 13.60L266.42 13.60L266.42 15.09L264.68 16.96Q265.72 17.18 266.28 17.82Q266.84 18.46 266.84 19.37L266.84 19.37Q266.84 20.11 266.44 20.75Q266.03 21.39 265.21 21.78Q264.39 22.17 263.18 22.17L263.18 22.17Q262.29 22.17 261.42 21.95Q260.55 21.74 259.92 21.34Z" fill="#FFFFFF" x="166.39000000000001"/></svg>