<svg xmlns="http://www.w3.org/2000/svg" width="139.36" height="35" viewBox="0 0 139.36 35"><rect class="svg__rect" x="0" y="0" width="82.36" height="35" fill="#31C4F3"/><rect class="svg__rect" x="80.36" y="0" width="59" height="35" fill="#389AD5"/><path class="svg__text" d="M13.95 18.19L13.95 18.19L13.95 17.39Q13.95 16.19 14.38 15.27Q14.80 14.35 15.60 13.85Q16.40 13.35 17.45 13.35L17.45 13.35Q18.86 13.35 19.73 14.12Q20.59 14.89 20.73 16.29L20.73 16.29L19.25 16.29Q19.14 15.37 18.71 14.96Q18.28 14.55 17.45 14.55L17.45 14.55Q16.48 14.55 15.97 15.26Q15.45 15.96 15.44 17.33L15.44 17.33L15.44 18.09Q15.44 19.47 15.93 20.20Q16.43 20.92 17.38 20.92L17.38 20.92Q18.25 20.92 18.69 20.53Q19.13 20.14 19.25 19.22L19.25 19.22L20.73 19.22Q20.60 20.59 19.72 21.35Q18.84 22.12 17.38 22.12L17.38 22.12Q16.36 22.12 15.59 21.63Q14.81 21.15 14.39 20.26Q13.97 19.37 13.95 18.19ZM26.52 22L25.04 22L25.04 13.47L28.04 13.47Q29.52 13.47 30.32 14.13Q31.12 14.79 31.12 16.05L31.12 16.05Q31.12 16.90 30.71 17.48Q30.30 18.06 29.56 18.37L29.56 18.37L31.47 21.92L31.47 22L29.89 22L28.17 18.71L26.52 18.71L26.52 22ZM26.52 14.66L26.52 17.52L28.05 17.52Q28.80 17.52 29.22 17.15Q29.64 16.77 29.64 16.11L29.64 16.11Q29.64 15.43 29.25 15.05Q28.86 14.68 28.09 14.66L28.09 14.66L26.52 14.66ZM41.09 22L35.52 22L35.52 13.47L41.05 13.47L41.05 14.66L37.00 14.66L37.00 17.02L40.50 17.02L40.50 18.19L37.00 18.19L37.00 20.82L41.09 20.82L41.09 22ZM47.74 22L45.29 22L45.29 13.47L47.81 13.47Q48.94 13.47 49.82 13.97Q50.69 14.48 51.17 15.40Q51.65 16.33 51.65 17.52L51.65 17.52L51.65 17.95Q51.65 19.16 51.17 20.08Q50.69 21.00 49.79 21.50Q48.90 22 47.74 22L47.74 22ZM46.77 14.66L46.77 20.82L47.74 20.82Q48.90 20.82 49.53 20.09Q50.15 19.36 50.16 17.99L50.16 17.99L50.16 17.52Q50.16 16.13 49.56 15.40Q48.96 14.66 47.81 14.66L47.81 14.66L46.77 14.66ZM57.68 22L56.21 22L56.21 13.47L57.68 13.47L57.68 22ZM64.17 14.66L61.54 14.66L61.54 13.47L68.31 13.47L68.31 14.66L65.64 14.66L65.64 22L64.17 22L64.17 14.66Z" fill="#FFFFFF"/><path class="svg__text" d="M96.88 22L94.55 22L94.55 13.60L96.50 13.60L100.21 18.07L100.21 13.60L102.54 13.60L102.54 22L100.59 22L96.88 17.52L96.88 22ZM109.83 18.95L106.62 13.60L109.13 13.60L111.12 16.94L113.12 13.60L115.42 13.60L112.20 18.99L112.20 22L109.83 22L109.83 18.95ZM121.35 22L118.64 22L121.70 17.75L118.77 13.60L121.45 13.60L123.13 16.02L124.78 13.60L127.35 13.60L124.42 17.66L127.55 22L124.81 22L123.07 19.40L121.35 22Z" fill="#FFFFFF" x="93.36"/></svg>