<svg xmlns="http://www.w3.org/2000/svg" width="269.03999999999996" height="35" viewBox="0 0 269.03999999999996 35"><rect class="svg__rect" x="0" y="0" width="155.39000000000001" height="35" fill="#31C4F3"/><rect class="svg__rect" x="153.39000000000001" y="0" width="115.64999999999998" height="35" fill="#389AD5"/><path class="svg__text" d="M19.57 22L14.22 22L14.22 13.47L15.70 13.47L15.70 20.82L19.57 20.82L19.57 22ZM24.48 22L22.94 22L26.16 13.47L27.49 13.47L30.72 22L29.17 22L28.47 20.01L25.17 20.01L24.48 22ZM26.82 15.28L25.58 18.82L28.06 18.82L26.82 15.28ZM34.24 19.42L34.24 19.42L35.72 19.42Q35.72 20.15 36.20 20.55Q36.68 20.95 37.58 20.95L37.58 20.95Q38.35 20.95 38.74 20.63Q39.13 20.32 39.13 19.80L39.13 19.80Q39.13 19.24 38.74 18.94Q38.34 18.63 37.31 18.32Q36.28 18.01 35.67 17.63L35.67 17.63Q34.50 16.90 34.50 15.72L34.50 15.72Q34.50 14.69 35.34 14.02Q36.18 13.35 37.53 13.35L37.53 13.35Q38.42 13.35 39.11 13.68Q39.81 14.01 40.21 14.61Q40.61 15.22 40.61 15.96L40.61 15.96L39.13 15.96Q39.13 15.29 38.71 14.91Q38.29 14.54 37.51 14.54L37.51 14.54Q36.79 14.54 36.39 14.85Q35.98 15.16 35.98 15.71L35.98 15.71Q35.98 16.18 36.42 16.50Q36.85 16.81 37.85 17.10Q38.84 17.40 39.45 17.78Q40.05 18.16 40.33 18.65Q40.61 19.13 40.61 19.79L40.61 19.79Q40.61 20.86 39.80 21.49Q38.98 22.12 37.58 22.12L37.58 22.12Q36.65 22.12 35.88 21.77Q35.10 21.43 34.67 20.83Q34.24 20.22 34.24 19.42ZM46.58 14.66L43.95 14.66L43.95 13.47L50.72 13.47L50.72 14.66L48.06 14.66L48.06 22L46.58 22L46.58 14.66ZM66.03 22L60.45 22L60.45 13.47L65.98 13.47L65.98 14.66L61.93 14.66L61.93 17.02L65.43 17.02L65.43 18.19L61.93 18.19L61.93 20.82L66.03 20.82L66.03 22ZM72.68 22L70.22 22L70.22 13.47L72.74 13.47Q73.87 13.47 74.75 13.97Q75.62 14.48 76.10 15.40Q76.58 16.33 76.58 17.52L76.58 17.52L76.58 17.95Q76.58 19.16 76.10 20.08Q75.62 21.00 74.72 21.50Q73.83 22 72.68 22L72.68 22ZM71.70 14.66L71.70 20.82L72.67 20.82Q73.84 20.82 74.46 20.09Q75.08 19.36 75.10 17.99L75.10 17.99L75.10 17.52Q75.10 16.13 74.49 15.40Q73.89 14.66 72.74 14.66L72.74 14.66L71.70 14.66ZM82.61 22L81.14 22L81.14 13.47L82.61 13.47L82.61 22ZM89.11 14.66L86.47 14.66L86.47 13.47L93.24 13.47L93.24 14.66L90.58 14.66L90.58 22L89.11 22L89.11 14.66ZM102.57 22L96.99 22L96.99 13.47L102.53 13.47L102.53 14.66L98.47 14.66L98.47 17.02L101.98 17.02L101.98 18.19L98.47 18.19L98.47 20.82L102.57 20.82L102.57 22ZM109.22 22L106.77 22L106.77 13.47L109.29 13.47Q110.42 13.47 111.29 13.97Q112.17 14.48 112.65 15.40Q113.13 16.33 113.13 17.52L113.13 17.52L113.13 17.95Q113.13 19.16 112.65 20.08Q112.16 21.00 111.27 21.50Q110.38 22 109.22 22L109.22 22ZM108.25 14.66L108.25 20.82L109.22 20.82Q110.38 20.82 111.01 20.09Q111.63 19.36 111.64 17.99L111.64 17.99L111.64 17.52Q111.64 16.13 111.04 15.40Q110.43 14.66 109.29 14.66L109.29 14.66L108.25 14.66ZM123.30 18.00L123.30 18.00L123.30 17.52Q123.30 16.28 123.74 15.32Q124.19 14.37 124.99 13.86Q125.80 13.35 126.84 13.35Q127.88 13.35 128.69 13.85Q129.49 14.35 129.93 15.29Q130.37 16.23 130.38 17.48L130.38 17.48L130.38 17.96Q130.38 19.21 129.95 20.16Q129.51 21.10 128.71 21.61Q127.90 22.12 126.85 22.12L126.85 22.12Q125.81 22.12 125.00 21.61Q124.19 21.10 123.75 20.17Q123.31 19.23 123.30 18.00ZM124.78 17.46L124.78 17.96Q124.78 19.36 125.33 20.13Q125.88 20.90 126.85 20.90L126.85 20.90Q127.84 20.90 128.37 20.15Q128.90 19.40 128.90 17.96L128.90 17.96L128.90 17.51Q128.90 16.09 128.36 15.34Q127.82 14.58 126.84 14.58L126.84 14.58Q125.88 14.58 125.34 15.33Q124.80 16.09 124.78 17.46L124.78 17.46ZM136.33 22L134.84 22L134.84 13.47L136.33 13.47L140.14 19.54L140.14 13.47L141.61 13.47L141.61 22L140.13 22L136.33 15.95L136.33 22Z" fill="#FFFFFF"/><path class="svg__text" d="M168.37 15.44L166.81 15.44L166.81 13.60L170.75 13.60L170.75 22L168.37 22L168.37 15.44ZM175.04 21.34L175.04 21.34L175.90 19.55Q176.39 19.88 177.01 20.07Q177.63 20.25 178.23 20.25L178.23 20.25Q178.84 20.25 179.20 20.02Q179.56 19.79 179.56 19.37L179.56 19.37Q179.56 18.55 178.28 18.55L178.28 18.55L177.28 18.55L177.28 17.05L178.78 15.44L175.47 15.44L175.47 13.60L181.54 13.60L181.54 15.09L179.80 16.96Q180.84 17.18 181.40 17.82Q181.96 18.46 181.96 19.37L181.96 19.37Q181.96 20.11 181.56 20.75Q181.15 21.39 180.33 21.78Q179.51 22.17 178.30 22.17L178.30 22.17Q177.41 22.17 176.54 21.95Q175.67 21.74 175.04 21.34ZM187.38 23.20L185.36 23.20L189.32 11.90L191.34 11.90L187.38 23.20ZM195.90 15.44L194.33 15.44L194.33 13.60L198.27 13.60L198.27 22L195.90 22L195.90 15.44ZM204.24 15.44L202.68 15.44L202.68 13.60L206.61 13.60L206.61 22L204.24 22L204.24 15.44ZM212.53 23.20L210.50 23.20L214.46 11.90L216.49 11.90L212.53 23.20ZM221.10 16.17L219.34 15.19Q219.83 14.37 220.72 13.90Q221.61 13.43 222.82 13.43L222.82 13.43Q223.78 13.43 224.52 13.74Q225.25 14.05 225.67 14.64Q226.08 15.22 226.08 15.99L226.08 15.99Q226.08 16.67 225.79 17.28Q225.49 17.89 224.65 18.65L224.65 18.65L223.07 20.11L226.31 20.11L226.31 22L219.77 22L219.77 20.51L222.91 17.57Q223.37 17.14 223.53 16.83Q223.68 16.53 223.68 16.22L223.68 16.22Q223.68 15.81 223.41 15.58Q223.13 15.35 222.60 15.35L222.60 15.35Q222.13 15.35 221.74 15.56Q221.36 15.77 221.10 16.17L221.10 16.17ZM230.49 17.80L230.49 17.80Q230.49 16.45 230.96 15.46Q231.43 14.46 232.27 13.95Q233.12 13.43 234.19 13.43L234.19 13.43Q235.26 13.43 236.10 13.95Q236.94 14.46 237.42 15.46Q237.89 16.45 237.89 17.80L237.89 17.80Q237.89 19.15 237.42 20.15Q236.94 21.14 236.10 21.65Q235.27 22.17 234.19 22.17L234.19 22.17Q233.12 22.17 232.27 21.65Q231.43 21.14 230.96 20.15Q230.49 19.16 230.49 17.80ZM232.87 17.80L232.87 17.80Q232.87 19.06 233.23 19.64Q233.58 20.22 234.19 20.22L234.19 20.22Q234.80 20.22 235.15 19.64Q235.51 19.06 235.51 17.80L235.51 17.80Q235.51 16.54 235.15 15.96Q234.80 15.38 234.19 15.38L234.19 15.38Q233.58 15.38 233.23 15.96Q232.87 16.54 232.87 17.80ZM243.47 16.17L241.71 15.19Q242.20 14.37 243.09 13.90Q243.98 13.43 245.19 13.43L245.19 13.43Q246.15 13.43 246.89 13.74Q247.62 14.05 248.04 14.64Q248.45 15.22 248.45 15.99L248.45 15.99Q248.45 16.67 248.16 17.28Q247.86 17.89 247.03 18.65L247.03 18.65L245.44 20.11L248.68 20.11L248.68 22L242.14 22L242.14 20.51L245.28 17.57Q245.74 17.14 245.90 16.83Q246.05 16.53 246.05 16.22L246.05 16.22Q246.05 15.81 245.78 15.58Q245.50 15.35 244.97 15.35L244.97 15.35Q244.51 15.35 244.12 15.56Q243.73 15.77 243.47 16.17L243.47 16.17ZM254.09 15.44L252.52 15.44L252.52 13.60L256.46 13.60L256.46 22L254.09 22L254.09 15.44Z" fill="#FFFFFF" x="166.39000000000001"/></svg>